<?xml version="1.0" encoding="utf-8"?>
<!-- Generator: Adobe Illustrator 27.5.0, SVG Export Plug-In . SVG Version: 6.00 Build 0)  -->
<svg version="1.1" xmlns="http://www.w3.org/2000/svg" xmlns:xlink="http://www.w3.org/1999/xlink" x="0px" y="0px"
	 viewBox="0 0 3710 3710" style="enable-background:new 0 0 3710 3710;" xml:space="preserve">
<g id="Background">
	<g>
		<g>
			<rect style="fill:#FFFFFF;" width="3710" height="3710"/>
		</g>
	</g>
</g>
<g id="Illustration">
	<g>
		<path style="fill:#F4F7FA;" d="M2981.002,1000.652c-42.28-58.006-404.237-537.691-990.953-514.326
			c-29.318,1.168-601.524,31.457-812.579,407.472c-156.123,278.148,9.166,524.936-181.294,714.445
			c-165.954,165.127-369.905,55.829-471.888,189.358c-155.347,203.404,92.046,752.743,472.151,1059.104
			c392.483,316.339,1143.348,548.417,1726.949,126.361C3378.609,2509.217,3371.96,1537.025,2981.002,1000.652z"/>
		<g>
			<g>
				<g>
					<defs>
						<path id="SVGID_1_" d="M1700.163,2492.589c57.474-126.89,123.246-322.992,96.027-551.601
							c-31.254-262.506-156.556-327.96-244.316-614.464c-125.275-408.977,95.304-671.406-65.358-809.699
							c-78.349-67.439-211.497-81.953-299.942-32.401c-252.34,141.376-267.076,874.988,73.725,1198.913
							c154.134,146.502,302.445,147.222,410.535,326.873C1766.346,2168.955,1736.59,2361.456,1700.163,2492.589z"/>
					</defs>
					
						<linearGradient id="SVGID_00000159450508941780553180000012222731212312175255_" gradientUnits="userSpaceOnUse" x1="1805.0747" y1="877.9301" x2="1319.3767" y2="1660.0458">
						<stop  offset="0.0036" style="stop-color:#E38DDD"/>
						<stop  offset="1" style="stop-color:#9571F6"/>
					</linearGradient>
					
						<use xlink:href="#SVGID_1_"  style="overflow:visible;fill:url(#SVGID_00000159450508941780553180000012222731212312175255_);"/>
					<clipPath id="SVGID_00000142899020981574146160000001423200455920471940_">
						<use xlink:href="#SVGID_1_"  style="overflow:visible;"/>
					</clipPath>
					<g style="clip-path:url(#SVGID_00000142899020981574146160000001423200455920471940_);">
						<path style="fill:#FFFFFF;" d="M1762.23,2164.415c-8.06-56.836-21.081-113.253-38.695-167.683
							c-40.474-125.061-92.323-197.076-157.962-288.25c-42.855-59.523-91.426-126.986-145.704-222.053
							c-101.555-177.868-132.337-239.83-155.416-336.831c-45.672-191.951-17.572-356.542,3.243-437.564
							c29.526-114.942,80.78-221.813,152.335-317.643l3.885,2.899c-71.177,95.321-122.158,201.622-151.524,315.948
							c-20.704,80.594-48.653,244.301-3.224,435.239c22.939,96.408,53.628,158.153,154.912,335.551
							c54.151,94.841,102.642,162.191,145.427,221.62c65.889,91.518,117.933,163.805,158.64,289.587
							c17.701,54.699,30.783,111.389,38.883,168.502L1762.23,2164.415z"/>
						<path style="fill:#FFFFFF;" d="M1247.089,1016.083l-3.283-2.269c-0.654-0.452-65.926-46.152-119.162-130.493
							c-49.157-77.879-97.888-205.59-50.889-371.767l4.664,1.318c-46.512,164.459,1.694,290.815,50.324,367.861
							c45.945,72.786,100.814,116.42,114.575,126.723c18.73-134.545,114.818-212.621,192.555-254.542
							c84.882-45.776,166.789-59.434,167.606-59.566l0.776,4.782c-0.81,0.132-82.027,13.696-166.201,59.113
							c-77.462,41.799-173.385,119.951-190.465,254.881L1247.089,1016.083z"/>
						<path style="fill:#FFFFFF;" d="M1267.943,1455.219c-79.361,0-182.634-20.167-269.175-104.018l3.375-3.483
							c155.692,150.853,366.51,92.902,388.932,86.148c-38.252-263.193,146.994-376.309,148.874-377.425l2.473,4.17
							c-1.859,1.101-185.286,113.248-146.248,374.596l0.301,2.014l-1.932,0.645
							C1393.452,1438.229,1340.765,1455.219,1267.943,1455.219z"/>
						<path style="fill:#FFFFFF;" d="M1392.96,1726.625c-61.025,0-138.305-14.185-229.779-59.335l2.146-4.349
							c229.48,113.267,367.983,30.145,383.322,20.073c-43.424-143.144,62.809-355.149,63.891-357.281l4.325,2.193
							c-1.078,2.127-107.287,214.09-63.058,355.36l0.52,1.657l-1.403,1.026C1552.035,1686.62,1495.416,1726.625,1392.96,1726.625z"
							/>
					</g>
				</g>
			</g>
			<g>
				<g>
					<defs>
						<path id="SVGID_00000127021201740716895650000012797568662586336395_" d="M2067.734,2623.962
							c29.838-106.953,58.667-275.917-13.458-437.659c-125.827-282.172-417.288-224.771-656.228-538.392
							c-192.715-252.948-104.769-423.716-329.361-602.306c-37.593-29.893-235.62-193.435-403.409-126.118
							c-94.551,37.931-137.558,132.219-145.631,149.92c-122.024,267.519,113.431,732.694,460.256,971.432
							c199.266,137.164,271.611,107.273,629.634,280.893C1819.915,2423.752,1973.309,2542.357,2067.734,2623.962z"/>
					</defs>
					
						<linearGradient id="SVGID_00000091007737065062337140000015505137758272348814_" gradientUnits="userSpaceOnUse" x1="1476.4814" y1="1298.5072" x2="1159.0502" y2="2245.5994">
						<stop  offset="0" style="stop-color:#AA80F9"/>
						<stop  offset="0.9964" style="stop-color:#6165D7"/>
					</linearGradient>
					
						<use xlink:href="#SVGID_00000127021201740716895650000012797568662586336395_"  style="overflow:visible;fill:url(#SVGID_00000091007737065062337140000015505137758272348814_);"/>
					<clipPath id="SVGID_00000124120497374997059940000012677887545036160653_">
						<use xlink:href="#SVGID_00000127021201740716895650000012797568662586336395_"  style="overflow:visible;"/>
					</clipPath>
					<g style="clip-path:url(#SVGID_00000124120497374997059940000012677887545036160653_);">
						<path style="fill:#FFFFFF;" d="M2084.908,2758.452c-25.784-264.887-108.967-449.886-247.238-549.866
							c-67.472-48.788-124.224-61.533-184.305-75.027c-65.571-14.727-133.375-29.952-218.203-94.723
							c-82.545-63.025-108.565-117.771-141.508-187.084c-29.293-61.627-65.747-138.329-154.665-244.842
							c-77.947-93.372-137.112-139.558-189.312-180.307c-57.094-44.57-102.192-79.775-150.326-159.419
							c-78.427-129.768-109.539-288.514-92.469-471.823l4.829,0.452c-16.972,182.255,13.91,340.003,91.791,468.867
							c47.672,78.876,92.457,113.836,149.159,158.101c52.391,40.895,111.773,87.25,190.051,181.022
							c89.311,106.984,125.911,183.992,155.322,245.868c32.661,68.72,58.46,123,140.07,185.314
							c83.985,64.121,151.263,79.23,216.323,93.843c60.582,13.606,117.804,26.455,186.086,75.831
							c139.444,100.823,223.296,286.989,249.219,553.321L2084.908,2758.452z"/>
						<path style="fill:#FFFFFF;" d="M976.988,1445.237l-3.236-0.25c-201.283-15.682-342.135-107.689-424.849-182.109
							c-89.629-80.641-132.253-158.675-132.674-159.452l4.269-2.307c0.417,0.777,42.733,78.194,131.792,158.285
							c81.698,73.464,220.512,164.201,418.64,180.49c-7.281-36.984-70.866-383.816,72.932-513.711l3.252,3.596
							c-149.168,134.747-71.602,508.524-70.8,512.285L976.988,1445.237z"/>
						<path style="fill:#FFFFFF;" d="M999.266,1754.347c-3.681,0-7.38-0.024-11.122-0.071
							c-129.196-1.577-321.257-32.287-502.547-169.613l2.928-3.869c180.177,136.484,371.078,167.039,499.495,168.634
							c128.285,1.544,221.519-24.601,236.088-28.954c-30.863-194.826,43.916-456.988,44.677-459.624l4.66,1.346
							c-0.763,2.636-75.766,265.64-44.216,459.586l0.334,2.057l-1.984,0.64C1226.626,1724.79,1133.306,1754.347,999.266,1754.347z"
							/>
						<path style="fill:#FFFFFF;" d="M1154.501,2213.918c-50.731,0-105.167-3.191-163.029-10.74l0.626-4.81
							c350.324,45.724,575.371-69.011,599.972-82.303c-123.134-191.861-36.101-474.171-35.202-477.009l4.622,1.459
							c-0.892,2.829-87.887,285.135,36.059,475.094l1.396,2.137l-2.21,1.285C1594.798,2120.151,1429.474,2213.918,1154.501,2213.918
							z"/>
					</g>
				</g>
			</g>
		</g>
		<g>
			
				<linearGradient id="SVGID_00000029027604662421819380000006888239779688720045_" gradientUnits="userSpaceOnUse" x1="1064.6744" y1="1631.6847" x2="1099.2072" y2="2080.6116">
				<stop  offset="0.0036" style="stop-color:#E38DDD"/>
				<stop  offset="1" style="stop-color:#9571F6"/>
			</linearGradient>
			<path style="fill:url(#SVGID_00000029027604662421819380000006888239779688720045_);" d="M1370.893,1968.742
				c-6.984,0-12.951-5.31-13.627-12.404c-12-125.922-53.057-245.564-115.604-336.891
				c-55.409-80.908-121.375-129.188-176.492-129.188c-0.063,0-0.12,0-0.184,0c-200.75,0.391-242.743,461.294-243.143,465.952
				c-0.649,7.542-7.258,13.127-14.83,12.481c-7.54-0.649-13.129-7.288-12.481-14.827c1.72-20.033,44.701-490.576,270.4-491.017
				c0.08,0,0.162,0,0.241,0c65.122,0,137.675,51.415,199.104,141.11c65.126,95.095,107.842,219.314,120.276,349.777
				c0.717,7.535-4.808,14.227-12.344,14.947C1371.768,1968.722,1371.328,1968.742,1370.893,1968.742z"/>
			
				<linearGradient id="SVGID_00000065064988546317381930000010740128256759049116_" gradientUnits="userSpaceOnUse" x1="394.326" y1="2047.1625" x2="728.3801" y2="2607.3455">
				<stop  offset="0" style="stop-color:#FF9085"/>
				<stop  offset="1" style="stop-color:#FB6FBB"/>
			</linearGradient>
			<path style="fill:url(#SVGID_00000065064988546317381930000010740128256759049116_);" d="M534.564,2917.32l264.265,133.792
				l160.117-491.349l-263.829-658.724l-74.811,18.343l-113.511,946.046C504.226,2886.843,515.322,2907.578,534.564,2917.32z"/>
			
				<linearGradient id="SVGID_00000113311302233191116580000000699509314734571708_" gradientUnits="userSpaceOnUse" x1="445.9752" y1="2016.3628" x2="780.0291" y2="2576.5454">
				<stop  offset="0" style="stop-color:#FF9085"/>
				<stop  offset="1" style="stop-color:#FB6FBB"/>
			</linearGradient>
			<path style="opacity:0.52;fill:url(#SVGID_00000113311302233191116580000000699509314734571708_);" d="M958.946,2559.763
				l-263.829-658.724l-44.126,10.82c-6.119,87.949-3.43,160.335,0.726,213.036c17.686,224.275,76.423,286.686,47.969,443.144
				c-23.659,130.093-75.328,147.75-70.811,235.276c4.92,95.326,71.406,175.151,150.455,237.925l19.5,9.871L958.946,2559.763z"/>
			
				<linearGradient id="SVGID_00000089565236324422632250000001499106173701574817_" gradientUnits="userSpaceOnUse" x1="975.8547" y1="2272.8291" x2="1916.3444" y2="2997.4697">
				<stop  offset="0" style="stop-color:#FF9085"/>
				<stop  offset="1" style="stop-color:#FB6FBB"/>
			</linearGradient>
			<polygon style="fill:url(#SVGID_00000089565236324422632250000001499106173701574817_);" points="695.117,1901.039 
				1680.457,1901.04 2006.558,2953.797 798.829,3051.112 			"/>
			
				<linearGradient id="SVGID_00000016056381173290220960000014212127744315972536_" gradientUnits="userSpaceOnUse" x1="1160.6592" y1="1428.3383" x2="1256.5973" y2="2039.9454">
				<stop  offset="0.0036" style="stop-color:#E38DDD"/>
				<stop  offset="1" style="stop-color:#9571F6"/>
			</linearGradient>
			<path style="fill:url(#SVGID_00000016056381173290220960000014212127744315972536_);" d="M1000.36,1991.271
				c-6.221,0-11.85-4.263-13.333-10.58c-2.801-11.938-67.539-294.028,23.744-432.468c26.163-39.677,62.715-63.903,108.64-72.004
				c235.969-41.578,381.252,465.237,387.322,486.832c2.046,7.288-2.2,14.853-9.486,16.901c-7.294,2.054-14.855-2.202-16.903-9.486
				c-1.422-5.046-144.432-504.636-356.171-467.25c-38.75,6.833-68.358,26.491-90.517,60.095
				c-84.852,128.69-20.599,408.313-19.94,411.124c1.728,7.368-2.846,14.743-10.214,16.473
				C1002.45,1991.154,1001.395,1991.271,1000.36,1991.271z"/>
			<g style="opacity:0.3;">
				
					<linearGradient id="SVGID_00000049206230425747305110000014340586365958294710_" gradientUnits="userSpaceOnUse" x1="988.0115" y1="2257.0486" x2="1928.5016" y2="2981.6897">
					<stop  offset="0" style="stop-color:#FF9085"/>
					<stop  offset="1" style="stop-color:#FB6FBB"/>
				</linearGradient>
				<path style="fill:url(#SVGID_00000049206230425747305110000014340586365958294710_);" d="M1680.457,1901.039h-488.819
					c-24.108,24.522-41.217,52.784-42.852,84.487c-7.682,148.95,334.739,197.882,367.763,402.027
					c23.822,147.265-122.761,317.185-253.551,392.889c-137.798,79.76-231.167,39.368-324.362,127.918
					c-40.949,38.906-65.884,87.558-80.712,137.99l1148.636-92.552L1680.457,1901.039z"/>
			</g>
			
				<linearGradient id="SVGID_00000103233029559527273810000000926796662804986041_" gradientUnits="userSpaceOnUse" x1="948.7808" y1="1974.1439" x2="964.2211" y2="1979.8789">
				<stop  offset="0.0036" style="stop-color:#E38DDD"/>
				<stop  offset="1" style="stop-color:#9571F6"/>
			</linearGradient>
			
				<circle style="fill:url(#SVGID_00000103233029559527273810000000926796662804986041_);" cx="1000.457" cy="1993.338" r="38.303"/>
			
				<linearGradient id="SVGID_00000021839406970572614450000011536026173151336891_" gradientUnits="userSpaceOnUse" x1="1448.2954" y1="1970.5912" x2="1463.7358" y2="1976.3262">
				<stop  offset="0.0036" style="stop-color:#E38DDD"/>
				<stop  offset="1" style="stop-color:#9571F6"/>
			</linearGradient>
			
				<circle style="fill:url(#SVGID_00000021839406970572614450000011536026173151336891_);" cx="1499.971" cy="1989.785" r="38.303"/>
		</g>
		<g>
			<g>
				<path style="fill:#26264F;" d="M2403.896,808.976c85.589,723.378,171.178,1439.204,256.768,2147.487
					c3.842,31.754-18.098,59.841-48.794,62.455c-343.98,32.63-687.961,65.98-1031.942,100.044
					c-61.361,2.979-95.055-31.31-99.005-65.637c-88.098-764.593-176.195-1537.192-264.292-2317.793
					c-3.95-35.059,25.75-65.193,87.109-62.197c345.675,24.646,691.35,48.967,1037.025,72.961
					C2371.667,748.34,2400.057,776.528,2403.896,808.976z"/>
				
					<linearGradient id="SVGID_00000121242122409074491280000009810231607841223350_" gradientUnits="userSpaceOnUse" x1="1428.094" y1="1895.6652" x2="3610.8345" y2="1812.2201" gradientTransform="matrix(1 0 0.1172 1.0028 -223.9047 -3.761)">
					<stop  offset="0" style="stop-color:#444B8C"/>
					<stop  offset="0.9964" style="stop-color:#26264F"/>
				</linearGradient>
				<path style="fill:url(#SVGID_00000121242122409074491280000009810231607841223350_);" d="M2451.67,807.495
					c86.128,726.531,172.256,1445.42,258.384,2156.664c3.864,31.861-18.208,60.108-49.099,62.744
					c-357.179,30.248-714.36,61.092-1071.539,92.547c-32.595,2.898-62.557-22.92-66.529-57.412
					c-88.652-768.097-177.304-1544.284-265.956-2328.587c-3.975-35.207,19.653-62.235,52.466-60.009
					c359.582,23.986,719.164,47.68,1078.745,71.095C2419.24,746.606,2447.805,774.903,2451.67,807.495z"/>
				
					<linearGradient id="SVGID_00000113320594249215062370000003186449045202811055_" gradientUnits="userSpaceOnUse" x1="2390.3689" y1="1064.0576" x2="290.2362" y2="5420.1235">
					<stop  offset="0" style="stop-color:#FFC444"/>
					<stop  offset="0.9964" style="stop-color:#F36F56"/>
				</linearGradient>
				<path style="fill:url(#SVGID_00000113320594249215062370000003186449045202811055_);" d="M2430.918,926.355
					c79.774,673.127,159.55,1339.686,239.324,1999.691c3.61,29.829-17.021,56.172-45.882,58.521
					c-335.908,27.472-671.818,55.465-1007.727,83.983c-30.35,2.602-58.252-21.566-61.959-53.612
					c-81.97-709.446-163.939-1425.822-245.909-2149.12c-3.704-32.724,18.283-58.051,48.825-56.24
					c338.001,19.679,676.003,39.159,1014.003,58.423C2400.632,869.659,2427.318,895.95,2430.918,926.355z"/>
				
					<linearGradient id="SVGID_00000121264615379335749040000002359090746337867426_" gradientUnits="userSpaceOnUse" x1="2397.927" y1="1067.701" x2="297.7961" y2="5423.7632">
					<stop  offset="0" style="stop-color:#FFC444"/>
					<stop  offset="0.9964" style="stop-color:#F36F56"/>
				</linearGradient>
				<path style="opacity:0.35;fill:url(#SVGID_00000121264615379335749040000002359090746337867426_);" d="M2371.594,868.001
					c-333.997-19.036-667.995-38.289-1001.992-57.728c10.325,59.362,28.326,123.969,58.682,189.827
					c110.787,240.355,273.542,253.592,337.217,463.045c65.6,215.786-82.343,283.318-10.066,478.144
					c78.43,211.41,270.783,180.813,372.448,412.714c87.629,199.879-25.18,291.249,65.431,412.714
					c99.317,133.136,283.048,87.998,473.76,133.09c-78.719-651.439-157.438-1309.233-236.156-1973.45
					C2427.318,895.95,2400.632,869.66,2371.594,868.001z"/>
			</g>
			<path style="fill:#DE8BDF;" d="M1883.747,779.274c1.358,11.703-6.505,20.664-17.571,20.026
				c-11.072-0.673-21.152-10.734-22.511-22.492c-1.36-11.724,6.517-20.736,17.59-20.013
				C1872.325,757.479,1882.389,767.549,1883.747,779.274z"/>
			
				<linearGradient id="SVGID_00000008851776195311200770000006853228260353870465_" gradientUnits="userSpaceOnUse" x1="1927.1075" y1="1338.5636" x2="2081.718" y2="1338.5636">
				<stop  offset="0" style="stop-color:#FF9085"/>
				<stop  offset="1" style="stop-color:#FB6FBB"/>
			</linearGradient>
			
				<ellipse style="fill:url(#SVGID_00000008851776195311200770000006853228260353870465_);" cx="2004.413" cy="1338.564" rx="77.305" ry="91.203"/>
			
				<linearGradient id="SVGID_00000085964279743900014900000015292850105108354708_" gradientUnits="userSpaceOnUse" x1="2234.8323" y1="1338.5636" x2="2389.4419" y2="1338.5636">
				<stop  offset="0" style="stop-color:#FF9085"/>
				<stop  offset="1" style="stop-color:#FB6FBB"/>
			</linearGradient>
			
				<ellipse style="fill:url(#SVGID_00000085964279743900014900000015292850105108354708_);" cx="2312.137" cy="1338.564" rx="77.305" ry="91.203"/>
			<ellipse style="fill:#D8DEE8;" cx="2157.422" cy="1338.564" rx="78.407" ry="91.203"/>
			
				<linearGradient id="SVGID_00000045584154305096877950000016586860599486589319_" gradientUnits="userSpaceOnUse" x1="2542.5554" y1="1338.5636" x2="2697.166" y2="1338.5636">
				<stop  offset="0" style="stop-color:#FF9085"/>
				<stop  offset="1" style="stop-color:#FB6FBB"/>
			</linearGradient>
			
				<ellipse style="fill:url(#SVGID_00000045584154305096877950000016586860599486589319_);" cx="2619.861" cy="1338.564" rx="77.305" ry="91.203"/>
			<ellipse style="fill:#D8DEE8;" cx="2465.146" cy="1338.564" rx="78.407" ry="91.203"/>
			<ellipse style="fill:#D8DEE8;" cx="2772.87" cy="1338.564" rx="78.406" ry="91.203"/>
			<ellipse style="fill:#D8DEE8;" cx="1849.698" cy="1338.564" rx="78.407" ry="91.203"/>
			
				<linearGradient id="SVGID_00000159464131914394520980000011466592342331337106_" gradientUnits="userSpaceOnUse" x1="1293.257" y1="1075.7307" x2="3011.1099" y2="1075.7307">
				<stop  offset="0" style="stop-color:#FF9085"/>
				<stop  offset="1" style="stop-color:#FB6FBB"/>
			</linearGradient>
			<polygon style="fill:url(#SVGID_00000159464131914394520980000011466592342331337106_);" points="1293.257,800.547 
				1772.969,1350.915 3011.11,1350.915 2411.149,870.255 			"/>
			<g>
				<polygon style="fill:#F4F7FA;" points="1293.257,800.548 1772.969,1350.915 1928.105,1350.915 1422.297,808.594 				"/>
				<polygon style="fill:#F4F7FA;" points="1560.849,817.232 2080.984,1350.915 2234.229,1350.915 1700.425,825.938 				"/>
				<polygon style="fill:#F4F7FA;" points="1841.044,834.706 2387.841,1350.915 2541.825,1350.915 1982.722,843.54 				"/>
				<polygon style="fill:#F4F7FA;" points="2269.336,861.412 2125.48,852.442 2696.183,1350.915 2850.919,1350.915 				"/>
			</g>
			
				<linearGradient id="SVGID_00000114065168460668215230000011456029045254943624_" gradientUnits="userSpaceOnUse" x1="2851.0703" y1="1390.34" x2="3004.0989" y2="1390.34">
				<stop  offset="0" style="stop-color:#FF9085"/>
				<stop  offset="1" style="stop-color:#FB6FBB"/>
			</linearGradient>
			<path style="fill:url(#SVGID_00000114065168460668215230000011456029045254943624_);" d="M2851.07,1350.915
				c5.122,44.512,37.38,78.851,76.514,78.851c39.135,0,71.393-34.339,76.514-78.851H2851.07z"/>
			<path style="opacity:0.63;fill:#F4F7FA;" d="M2262.596,1694.721c-66.96-154.32-236.835-229.266-379.427-167.398
				c-142.59,61.872-203.901,237.131-136.939,391.453c66.961,154.321,236.836,229.267,379.427,167.398
				C2268.247,2024.302,2329.557,1849.043,2262.596,1694.721z M2052.335,1914.636l5.712,43.464l-41.764,5.486l-5.323-40.486
				c-28.719,2.482-57.429-1.548-74.857-8.798l6.232-51.54c19.189,7.441,45.51,13.094,73.211,9.452
				c24.296-3.189,39.68-14.755,37.439-31.801c-2.128-16.2-17.109-24.63-50.046-31.142c-47.618-9.348-81.527-26.571-86.964-67.912
				c-4.924-37.497,17.631-70.379,62.054-85.321l-5.318-40.487l41.768-5.484l4.925,37.502c28.724-2.477,48.684,0.969,63.646,5.937
				l-6.031,49.785c-11.698-3.229-32.588-10.46-63.277-6.424c-27.702,3.637-35.079,16.75-33.511,28.685
				c1.848,14.063,17.94,21.052,55.958,29.928c53.069,11.236,76.602,31.988,81.645,70.335
				C2122.819,1863.75,2100.228,1899.665,2052.335,1914.636z"/>
			<g style="opacity:0.63;">
				<path style="fill:#F4F7FA;" d="M2415.589,2532.666l-652.67,19.775c-23.464,0.711-43.764-16.209-47.292-39.417l-26.453-174.001
					c-4.205-27.664,16.839-52.731,44.812-53.379l653.376-15.134c23.342-0.54,43.452,16.343,46.962,39.427l25.747,169.36
					C2464.257,2506.829,2443.424,2531.823,2415.589,2532.666z"/>
				<path style="fill:#F4F7FA;" d="M2437.517,2675.708l-652.284,22.31c-23.531,0.805-43.936-16.135-47.475-39.411l-0.249-1.638
					c-4.182-27.507,16.609-52.487,44.417-53.367l652.534-20.672c23.487-0.744,43.825,16.183,47.357,39.415l0,0
					C2485.992,2649.804,2465.276,2674.758,2437.517,2675.708z"/>
			</g>
		</g>
		<g>
			<g>
				<g>
					
						<linearGradient id="SVGID_00000165935047808858262350000000379780546164153501_" gradientUnits="userSpaceOnUse" x1="514.5943" y1="2622.8843" x2="474.5755" y2="2250.2107" gradientTransform="matrix(0.9603 -0.2791 0.2791 0.9603 1177.3698 93.2922)">
						<stop  offset="0" style="stop-color:#311944"/>
						<stop  offset="1" style="stop-color:#893976"/>
					</linearGradient>
					<path style="fill:url(#SVGID_00000165935047808858262350000000379780546164153501_);" d="M2103.271,1719.732
						c2.17-7.264,5.588-22.377,0.967-39.994c-8.979-34.233-41.878-53.406-44.823-50.901c-1.587,1.35,3.621,10.631,6.2,14.665
						c5.369,8.401,8.53,8.444,9.512,12.733c2.025,8.829-10.415,12.808-13.678,26.255c-2.349,9.683,0.707,21.614,8.567,29.474
						C2083.06,1725.004,2102.456,1719.959,2103.271,1719.732z"/>
					
						<linearGradient id="SVGID_00000111175811804489751490000010359348959353574293_" gradientUnits="userSpaceOnUse" x1="2887.3999" y1="2304.0164" x2="2903.7505" y2="2337.6387">
						<stop  offset="0" style="stop-color:#FFC444"/>
						<stop  offset="0.9964" style="stop-color:#F36F56"/>
					</linearGradient>
					<polygon style="fill:url(#SVGID_00000111175811804489751490000010359348959353574293_);" points="2869.046,2364.042 
						2858.96,2329.336 2901.067,2298.135 2927.312,2288.322 2911.773,2336.881 					"/>
					
						<linearGradient id="SVGID_00000056417866611124769720000016141689994203436713_" gradientUnits="userSpaceOnUse" x1="1596.21" y1="3160.2283" x2="1596.21" y2="3054.749" gradientTransform="matrix(1 0 0 1 1249.563 0)">
						<stop  offset="0" style="stop-color:#FFC444"/>
						<stop  offset="0.9964" style="stop-color:#F36F56"/>
					</linearGradient>
					<path style="fill:url(#SVGID_00000056417866611124769720000016141689994203436713_);" d="M2816.925,3063.02
						c0,0,23.031,57.937,16.97,83.633c24.726-0.485,40.725-3.635,40.725-3.635s-9.938-26.424-11.878-39.514
						c-2.621-17.686-2.424-46.302-2.424-46.302L2816.925,3063.02z"/>
					<path style="fill:#26264F;" d="M2563.055,3198.531c1.49,1.798,4.132,5.554,4.353,10.644c0.121,2.765-0.511,5.04-1.306,7.131
						c-3.927,10.333-10.094,11.697-16.75,22.661c-4.065,6.699-3.298,8.719-7.024,11.744c-4.91,3.986-10.85,4.214-15.999,4.273
						c-8.7,0.1-21.228-0.21-36.999-2.091c8.266-10.652,17.055-21.474,26.403-32.401c4.099-4.791,8.193-9.47,12.274-14.039
						l24.301-8.211C2555.89,3198.339,2559.473,3198.435,2563.055,3198.531z"/>
					
						<linearGradient id="SVGID_00000010298662846538880740000012695844985307036548_" gradientUnits="userSpaceOnUse" x1="1274.7076" y1="3190.2888" x2="1274.7076" y2="3063.1689" gradientTransform="matrix(1 0 0 1 1249.563 0)">
						<stop  offset="0" style="stop-color:#FFC444"/>
						<stop  offset="0.9964" style="stop-color:#F36F56"/>
					</linearGradient>
					<path style="fill:url(#SVGID_00000010298662846538880740000012695844985307036548_);" d="M2542.847,3080.545
						c0,0-13.891,72.479,3.785,92.774c15.057,20.295-7.273,5.817-7.273,5.817l-26.667,23.273l-15.998,27.636
						c0,0,14.728-70.938,10.799-99.09c-3.927-28.15-5.892-47.136-5.892-47.136L2542.847,3080.545z"/>
					
						<linearGradient id="SVGID_00000140737452149613213520000004906574219298373556_" gradientUnits="userSpaceOnUse" x1="1203.5923" y1="2690.9421" x2="1619.4828" y2="2690.9421" gradientTransform="matrix(1 0 0 1 1249.563 0)">
						<stop  offset="0" style="stop-color:#311944"/>
						<stop  offset="1" style="stop-color:#893976"/>
					</linearGradient>
					<path style="fill:url(#SVGID_00000140737452149613213520000004906574219298373556_);" d="M2490.472,2287.736
						c0,0-37.317,33.388-37.317,170.869c0,137.481,17.677,436.012,17.677,436.012l28.285,213.733c0,0,29.328,1.044,48.969-4.847
						c17.676-80.525,46.48-216.741,32.73-330.655c-5.891-123.734,49.101-278.891,49.101-278.891s47.136,157.121,80.525,235.683
						c33.388,78.559,96.956,324.671,102.847,342.349c39.069,3.54,55.756-6.79,55.756-6.79s-25.051-264.855-48.618-365.021
						c-23.569-100.165-21.605-341.739-60.886-410.48C2671.162,2254.347,2490.472,2287.736,2490.472,2287.736z"/>
					
						<linearGradient id="SVGID_00000039126798880827380400000010924355117824673669_" gradientUnits="userSpaceOnUse" x1="1190.3746" y1="2380.9187" x2="1490.0007" y2="2884.175" gradientTransform="matrix(1 0 0 1 1249.563 0)">
						<stop  offset="0" style="stop-color:#311944"/>
						<stop  offset="1" style="stop-color:#893976"/>
					</linearGradient>
					<path style="fill:url(#SVGID_00000039126798880827380400000010924355117824673669_);" d="M2490.473,2287.736
						c0,0-37.319,33.388-37.319,170.869c0,137.481,17.678,436.012,17.678,436.012l28.285,213.733c0,0,29.328,1.044,48.969-4.847
						c17.677-80.525,46.48-216.741,32.732-330.655c-5.892-123.734,49.099-278.891,49.099-278.891s47.136,157.121,80.525,235.683
						c33.388,78.559,96.957,324.672,102.848,342.349c39.068,3.54,55.756-6.79,55.756-6.79s-25.052-264.855-48.618-365.021
						c-23.57-100.165-21.605-341.739-60.885-410.481C2671.163,2254.347,2490.473,2287.736,2490.473,2287.736z"/>
					
						<linearGradient id="SVGID_00000035505748487603587960000015750936828505245375_" gradientUnits="userSpaceOnUse" x1="1308.3293" y1="2310.6914" x2="1607.9554" y2="2813.9475" gradientTransform="matrix(1 0 0 1 1249.563 0)">
						<stop  offset="0" style="stop-color:#311944"/>
						<stop  offset="1" style="stop-color:#893976"/>
					</linearGradient>
					<path style="opacity:0.25;fill:url(#SVGID_00000035505748487603587960000015750936828505245375_);" d="M2684.324,2539.642
						c11.635,75.634,34.907,116.361,93.088,168.723c46.543,34.907,11.636,110.542,29.091,168.722
						c5.817,17.454,23.272,34.907,29.09,52.362c21.649,43.301,1.428,96.265,11.246,142.112c15.276-2.11,22.208-6.359,22.208-6.359
						s-25.052-264.855-48.618-365.021c-23.57-100.165-21.605-341.74-60.885-410.481c-88.38-35.352-269.07-1.963-269.07-1.963
						s-37.319,33.388-37.319,170.869c0,11.156,0.119,23.383,0.333,36.413c38.74,34.286,117.973,41.904,166.839,3.899
						c2.952-2.214,6.093-3.572,9.338-4.231c0.15-0.435,0.253-0.728,0.253-0.728s0.082,0.272,0.206,0.68
						C2652.362,2490.581,2679.279,2519.46,2684.324,2539.642z"/>
					<g>
						<path style="fill:#26264F;" d="M2827.836,3168.64c0,0-5.739,0-5.262,7.415c0.48,7.413-2.583,32.917,26.593,34.113
							c29.177,1.195,33.677-2.065,34.634-2.065c0.957,0-7.653-24.396-7.653-24.396l-9.328-11.956l-25.112-2.631L2827.836,3168.64z"
							/>
						<path style="fill:#444B8C;" d="M2892.531,3194.24c-0.623-6.159-4.068-15.853-7.535-23.654
							c-5.151-11.59-0.922-15.927-5.846-26.482c-1.702-3.65-3.357-7.111-6.953-10.541c-0.828-0.789-8.879-8.229-20.604-7.851
							c-2.307,0.075-5.86,0.23-9.7,2.276c-4.524,2.411-6.791,6.033-8.726,9.212c-3.043,4.997-2.344,6.53-7.03,20.848
							c-0.377,1.148-1.202,3.647-1.836,7.095c-0.487,2.638-0.682,4.854-0.769,6.367c7.653,0,37.071,1.196,43.287,5.74
							c6.219,4.544,9.328,12.197,9.328,19.851c0,7.653,3.827,11.239,7.653,11.001
							C2887.219,3207.887,2894.011,3201.556,2892.531,3194.24z"/>
					</g>
					<path style="fill:#444B8C;" d="M2539.116,3163.138c6.572,0.103,11.394,5.333,15.029,17.939
						c3.637,12.606,21.091,23.757,0.729,21.091c-20.364-2.667-35.152,26.18-42.423,36.848c-7.273,10.666-26.796,20.142-26.311,9.719
						c0.484-10.424,9.099-15.295,11.522-25.961C2500.087,3212.105,2524.125,3162.903,2539.116,3163.138z"/>
					
						<linearGradient id="SVGID_00000004522846139966637440000003565086366561227909_" gradientUnits="userSpaceOnUse" x1="1380.4545" y1="-3719.1672" x2="1697.7719" y2="-3066.655" gradientTransform="matrix(-0.9894 0.1452 -0.1452 -0.9894 3503.4004 -1904.9904)">
						<stop  offset="0.0036" style="stop-color:#E38DDD"/>
						<stop  offset="1" style="stop-color:#9571F6"/>
					</linearGradient>
					<path style="fill:url(#SVGID_00000004522846139966637440000003565086366561227909_);" d="M2854.15,2239.518
						c0.891-14.25,5.218-107.41-64.051-171.088c-56.707-52.13-129.01-53.499-139.275-53.543
						c-62.489-0.268-84.986,29.95-108.985,15.133c-40.725-25.144-39.582-151.441,21.17-194.331
						c68.481-48.346,189.088,25.96,245.337,81.442c73.794,72.79,86.951,162.628,89.313,181.232
						c6.137,48.344-0.583,88.532-6.865,113.834C2878.579,2221.303,2866.365,2230.41,2854.15,2239.518z"/>
					
						<linearGradient id="SVGID_00000013878082083758050260000006905025610282502073_" gradientUnits="userSpaceOnUse" x1="621.5957" y1="2064.8665" x2="942.9597" y2="2725.7002" gradientTransform="matrix(0.9603 -0.2791 0.2791 0.9603 1177.3698 93.2922)">
						<stop  offset="0.0036" style="stop-color:#E38DDD"/>
						<stop  offset="1" style="stop-color:#9571F6"/>
					</linearGradient>
					<path style="fill:url(#SVGID_00000013878082083758050260000006905025610282502073_);" d="M2519.732,1830.484
						c-68.721,17.028-120.796,33.332-141.793,71.507c-22.178,40.322,19.659,66.404,36.622,150.085
						c25.969,128.113-44.86,181.846-13.97,310.498c10.407,43.348,27.802,76.196,39.54,95.61
						c23.827,16.702,61.398,39.126,111.128,52.552c72.368,19.539,106.132,2.651,201.47,1.152
						c155.946-2.453,182.482,40.893,250.625,8.078c68.868-33.165,114.673-112.546,97.278-143.771
						c-10.419-18.699-37.952-4.542-80.432-25.334c-54.75-26.796-48.977-69.243-94.201-101.995
						c-64.958-47.043-120.039,9.267-175.651-31.704c-56.254-41.446-70.61-151.162-52.887-218.393
						c11.576-43.912,8.452-90.521,16.155-135.275c0.64-3.718,0.93-9.595-1.822-16.035c-10.521-24.631-57.106-26.109-92.294-26.9
						C2565.831,1819.355,2525.384,1829.082,2519.732,1830.484z"/>
					
						<linearGradient id="SVGID_00000097482131051679819600000013077793235752166543_" gradientUnits="userSpaceOnUse" x1="-487.9679" y1="1982.2112" x2="-426.5546" y2="2079.8232" gradientTransform="matrix(0.9603 -0.2791 0.2791 0.9603 2377.2734 -255.4751)">
						<stop  offset="0.0036" style="stop-color:#E38DDD"/>
						<stop  offset="1" style="stop-color:#9571F6"/>
					</linearGradient>
					<path style="fill:url(#SVGID_00000097482131051679819600000013077793235752166543_);" d="M2461.696,1844.306l12.2-8.017
						c0,0,8.776,17.12,52.514,6.866c23.91-6.949,35.474-24.84,35.474-24.84l11.094,4.013c0,0-12.792,30.927-44.92,39.572
						C2486.595,1873.058,2461.696,1844.306,2461.696,1844.306z"/>
					<g>
						
							<linearGradient id="SVGID_00000135686896863858854370000018415192357948561033_" gradientUnits="userSpaceOnUse" x1="-311.5229" y1="3248.6699" x2="-351.542" y2="2875.9932" gradientTransform="matrix(0.9603 -0.2791 0.2791 0.9603 2377.2734 -255.4751)">
							<stop  offset="0" style="stop-color:#311944"/>
							<stop  offset="1" style="stop-color:#893976"/>
						</linearGradient>
						<path style="fill:url(#SVGID_00000135686896863858854370000018415192357948561033_);" d="M2472.94,1781.2
							c-3.209-20.673,8.83-38.014,11.472-41.745c11.064-15.619,13.659-17.621,18.327-19.997l6.451-2.984
							c0,0,0.366-0.097,0.746-0.183c4.021-0.909,17.205,0.271,19.797,1.158c8.283,2.838,13.175,38.56,4.708,87.219
							c0.228,3.845,0.458,7.691,0.685,11.536c19.1-2.088,24.553-0.118,25.458,2.458c1.958,5.58-15.835,18.597-34.138,24.427
							c-22.953,7.311-50.397,4.499-52.085-3.063c-0.683-3.061,2.601-8.036,18.333-16.556c1.552-4.452,3.102-8.903,4.654-13.355
							C2494.127,1807.919,2475.304,1796.429,2472.94,1781.2z"/>
						
							<linearGradient id="SVGID_00000106861260114272836860000015836753018518849954_" gradientUnits="userSpaceOnUse" x1="2513.2168" y1="1915.6505" x2="2502.3779" y2="1796.4221">
							<stop  offset="0" style="stop-color:#311944"/>
							<stop  offset="1" style="stop-color:#893976"/>
						</linearGradient>
						<path style="fill:url(#SVGID_00000106861260114272836860000015836753018518849954_);" d="M2499.344,1765.391
							c4.332-4.664,10.289,0.923,9.532,7.538c-0.756,6.615-7.985,12.718-14.043,10.665
							C2488.776,1781.542,2493.514,1771.665,2499.344,1765.391z"/>
						
							<linearGradient id="SVGID_00000021114011464259001590000008806139649927260564_" gradientUnits="userSpaceOnUse" x1="791.7435" y1="1500.8634" x2="1357.3892" y2="2399.918" gradientTransform="matrix(0.9603 -0.2791 0.2791 0.9603 1177.3698 93.2922)">
							<stop  offset="0" style="stop-color:#444B8C"/>
							<stop  offset="0.9964" style="stop-color:#26264F"/>
						</linearGradient>
						<path style="fill:url(#SVGID_00000021114011464259001590000008806139649927260564_);" d="M3179.117,1567.698
							c-90.813-54.85-245.476,12.385-317.085,98.45c-33.274,39.993-44.925,79.193-93.038,96.183
							c-36.576,12.917-99.802,16.129-142.669-15.101c-5.4-3.935-27.287-20.657-58.665-40.648
							c-13.833-8.812-27.397-16.913-44.148-14.768c-4.256,0.546-18.436,2.278-24.846,13.624c-5.195,9.194-3.393,22.031,1.333,30.287
							c2.827,4.937,4.649,5.014,5.423,8.56c2.174,9.959-14.378,19.383-11.958,24.015c1.728,3.309,10.612-0.669,13.49,3.28
							c3.153,4.327-5.806,11.442-6.641,24.87c-6.592,7.858-7.8,22.996-4.286,41.759c5.165,27.584,14.194,48.592,24.046,63.527
							c47.436,71.909,81.367,123.344,132.897,142.595c68.223,25.488,107.504-27.771,248.379-75.337
							c192.898-65.13,260.844-13.077,317.882-78.776C3290.447,1808.184,3273.404,1624.643,3179.117,1567.698z"/>
					</g>
					
						<linearGradient id="SVGID_00000103976537074280617650000003128940361535177090_" gradientUnits="userSpaceOnUse" x1="585.8248" y1="2080.2781" x2="901.8953" y2="2730.2263" gradientTransform="matrix(0.9603 -0.2791 0.2791 0.9603 1177.3698 93.2922)">
						<stop  offset="0.0036" style="stop-color:#E38DDD"/>
						<stop  offset="1" style="stop-color:#9571F6"/>
					</linearGradient>
					<path style="fill:url(#SVGID_00000103976537074280617650000003128940361535177090_);" d="M2110.141,1712.576
						c3.009,16.85,18.132,90.86,85.744,137.411c63.177,43.495,132.481,35.708,145.286,33.996
						c61.941-8.28,80.096-41.29,105.895-29.892c43.78,19.339,59.915,144.607,5.599,195.401
						c-61.226,57.255-190.861,0.138-254.167-47.133c-83.055-62.016-108.372-149.211-113.254-167.317
						c-12.69-47.051-11.528-87.781-8.765-113.703c3.559-2.308,9.118-5.333,16.471-7.196
						C2099.956,1712.367,2106.008,1712.301,2110.141,1712.576z"/>
					
						<linearGradient id="SVGID_00000109707964031254135600000004142609826751925426_" gradientUnits="userSpaceOnUse" x1="575.1951" y1="2087.4402" x2="896.5558" y2="2748.2668" gradientTransform="matrix(0.9603 -0.2791 0.2791 0.9603 1177.3698 93.2922)">
						<stop  offset="0.0036" style="stop-color:#E38DDD"/>
						<stop  offset="1" style="stop-color:#9571F6"/>
					</linearGradient>
					<path style="opacity:0.3;fill:url(#SVGID_00000109707964031254135600000004142609826751925426_);" d="M2991.627,2471.519
						c-22.546-12.76-13.863-54.229-47.281-73.468c-31.015-17.857-52.158,9.998-96.691-0.179
						c-57.119-13.055-58.122-67.057-112.914-80.319c-39.401-9.538-49.224,15.885-104.678,20.998
						c-55.361,5.104-129.705-12.476-180.012-67.887c-21.376-23.545-34.243-49.388-41.986-73.581
						c-11.333,48.97-24.053,96.441-7.474,165.493c10.407,43.348,27.802,76.196,39.539,95.609
						c23.827,16.702,61.398,39.127,111.128,52.552c72.368,19.539,106.132,2.652,201.47,1.152
						c155.946-2.453,182.482,40.893,250.625,8.078c44.014-21.195,78.507-61.238,93.203-95.552
						C3038.434,2473.536,3007.99,2480.779,2991.627,2471.519z"/>
				</g>
			</g>
		</g>
	</g>
</g>
</svg>
